<svg version="1.1" id="Layer_1" xmlns="http://www.w3.org/2000/svg" xmlns:xlink="http://www.w3.org/1999/xlink" x="0px" y="0px"
	 width="100%" viewBox="0 0 1000 1000" enable-background="new 0 0 1000 1000" xml:space="preserve">
<path fill="#050A30" opacity="1.000000" stroke="none" 
	d="
M635.000000,1001.000000 
	C423.333344,1001.000000 212.166672,1001.000000 1.000000,1001.000000 
	C1.000000,667.666687 1.000000,334.333344 1.000000,1.000000 
	C334.333344,1.000000 667.666687,1.000000 1001.000000,1.000000 
	C1001.000000,334.333344 1001.000000,667.666687 1001.000000,1001.000000 
	C879.166687,1001.000000 757.333313,1001.000000 635.000000,1001.000000 
M564.754333,727.217651 
	C571.095947,721.615173 577.820984,716.384888 583.697510,710.330994 
	C595.112366,698.571655 606.050598,686.349731 617.781006,673.980347 
	C621.551025,668.664978 625.321106,663.349670 629.666382,657.696350 
	C631.565430,654.834106 633.464417,651.971802 635.895874,648.736267 
	C639.021973,643.861816 642.148010,638.987305 645.816345,633.730103 
	C649.569214,627.199341 653.322083,620.668518 657.673401,613.787231 
	C662.742065,603.520935 667.810791,593.254700 673.345215,582.449951 
	C676.819031,573.658386 680.292847,564.866882 684.102356,555.541870 
	C684.942078,553.016235 685.781860,550.490601 686.978027,547.287659 
	C696.748169,517.866394 704.786499,487.919464 707.871094,457.084045 
	C710.967468,426.131165 712.401062,394.992798 713.856384,363.902618 
	C714.656311,346.813477 713.999451,329.656128 713.999451,311.699951 
	C701.835571,309.585052 688.804565,307.102661 675.702332,305.081970 
	C636.232788,298.994720 597.880005,288.999969 561.368774,272.595490 
	C544.846741,265.172180 528.507996,257.341064 511.687683,249.189194 
	C510.119843,248.473190 508.552002,247.757187 506.512115,246.444107 
	C503.494263,246.141754 500.224823,244.967804 497.519653,245.748688 
	C493.797638,246.823074 490.502411,249.376038 486.343292,251.358322 
	C483.889221,252.679092 481.435150,253.999847 478.302368,255.407257 
	C471.198700,258.929840 464.095001,262.452423 456.259613,266.007233 
	C452.130737,267.856689 448.001862,269.706177 443.137238,271.738525 
	C414.018982,284.684784 383.889221,294.525238 352.576935,300.472626 
	C332.326355,304.318939 311.955475,307.532379 291.636841,311.019653 
	C288.956268,311.479675 286.515411,311.728363 286.665710,315.653198 
	C287.614502,340.426056 288.380829,365.205902 289.022369,390.809601 
	C289.249176,393.240295 289.476013,395.671021 289.445038,398.990997 
	C289.721222,403.320129 289.997406,407.649292 290.107941,412.857666 
	C290.482971,417.577728 290.858002,422.297821 291.101044,427.884369 
	C291.511017,432.929291 291.920959,437.974182 292.165649,443.720734 
	C292.555939,446.823212 292.946228,449.925690 293.187805,453.856628 
	C296.139801,469.843506 298.677856,485.920044 302.116943,501.801453 
	C315.445557,563.352539 341.882538,618.862427 379.949799,668.927185 
	C397.477417,691.978943 418.330933,711.762756 440.475159,730.235901 
	C448.741882,737.132202 457.457581,743.490356 466.280640,750.690063 
	C469.857666,752.783264 473.434692,754.876465 477.363373,757.550171 
	C481.873749,760.125305 486.384125,762.700439 491.310669,765.797913 
	C493.161530,766.635803 495.012390,767.473694 497.413818,768.903503 
	C499.366608,768.824158 501.630219,769.360840 503.218658,768.559387 
	C510.289581,764.992004 517.167358,761.041748 524.815002,757.106995 
	C539.173462,748.921082 552.223389,738.994995 564.754333,727.217651 
z"/>
<path fill="#F3F5FC" opacity="1.000000" stroke="none" 
	d="
M465.968567,750.093872 
	C457.457581,743.490356 448.741882,737.132202 440.475159,730.235901 
	C418.330933,711.762756 397.477417,691.978943 379.949799,668.927185 
	C341.882538,618.862427 315.445557,563.352539 302.116943,501.801453 
	C298.677856,485.920044 296.139801,469.843506 293.599152,453.376129 
	C296.107758,450.967224 298.019379,450.153107 301.372711,450.661407 
	C312.871033,452.404449 323.424683,450.482452 331.702637,440.971832 
	C335.928528,436.116699 340.663208,431.408295 345.987183,427.864410 
	C358.498932,419.536133 361.712158,407.555939 359.650299,393.974457 
	C358.894562,388.996307 359.858551,385.898315 362.399963,382.016602 
	C365.639221,377.069092 369.107513,375.726471 374.715363,377.636475 
	C383.540649,380.642212 391.565521,378.543915 399.081055,373.049164 
	C407.255829,367.072357 416.036682,361.909180 424.064484,355.753815 
	C427.600464,353.042603 431.792084,349.057678 432.427826,345.124420 
	C433.865936,336.227081 439.209198,333.129486 446.796631,331.549225 
	C448.413361,331.212555 449.919922,330.312653 451.539612,330.031067 
	C456.018066,329.252502 460.538208,328.054626 465.026184,328.118744 
	C476.511444,328.282776 486.728821,326.134827 494.209167,316.359924 
	C500.251007,308.464844 506.876953,301.015228 512.879456,293.091980 
	C520.925537,282.471344 520.719482,266.455841 513.087219,255.467606 
	C512.077087,254.013245 512.387329,251.641739 512.086060,249.694977 
	C528.507996,257.341064 544.846741,265.172180 561.368774,272.595490 
	C597.880005,288.999969 636.232788,298.994720 675.702332,305.081970 
	C688.804565,307.102661 701.835571,309.585052 713.999451,311.699951 
	C713.999451,329.656128 714.656311,346.813477 713.856384,363.902618 
	C712.401062,394.992798 710.967468,426.131165 707.871094,457.084045 
	C704.786499,487.919464 696.748169,517.866394 686.427368,547.623901 
	C682.138489,549.917542 677.505005,551.057068 674.829895,553.985535 
	C666.793945,562.782837 659.785583,572.512512 651.862915,581.421814 
	C646.190979,587.800110 645.379089,594.863525 646.320618,602.772888 
	C646.594299,605.072327 646.246948,609.234314 645.202942,609.580078 
	C641.473206,610.815552 637.644104,614.056885 633.266235,609.896606 
	C624.227783,601.307373 607.139465,600.010620 596.774170,606.832153 
	C589.144165,611.853516 581.882568,617.461182 574.082886,622.191040 
	C565.109619,627.632568 559.199951,634.773743 558.367737,645.498840 
	C558.136841,648.475098 558.219666,651.477051 557.952087,654.448608 
	C557.793640,656.208618 557.646790,658.179688 556.782227,659.631470 
	C551.732361,668.110962 546.189697,675.507019 534.251831,673.125793 
	C527.015747,671.682495 521.176025,675.375610 516.011536,680.387939 
	C511.259399,685.000061 505.806000,688.903870 501.177063,693.625122 
	C495.123993,699.798828 486.765533,704.424194 485.513458,714.175781 
	C484.966431,718.436462 485.077972,722.789856 485.024872,727.102783 
	C484.992676,729.718445 486.358032,733.245117 485.125122,734.793640 
	C480.392303,740.737732 478.319519,750.353149 467.629150,749.146790 
	C467.117737,749.089050 466.523987,749.761414 465.968567,750.093872 
M425.190369,572.304810 
	C449.213013,599.381592 479.305756,610.736633 515.082458,606.041443 
	C570.481934,598.771118 609.082642,546.139099 599.762207,491.184570 
	C589.125305,428.467682 525.120178,391.160889 465.701660,413.801147 
	C399.378479,439.072266 381.150360,519.776550 425.190369,572.304810 
z"/>
<path fill="#E3E5EE" opacity="1.000000" stroke="none" 
	d="
M511.886871,249.442078 
	C512.387329,251.641739 512.077087,254.013245 513.087219,255.467606 
	C520.719482,266.455841 520.925537,282.471344 512.879456,293.091980 
	C506.876953,301.015228 500.251007,308.464844 494.209167,316.359924 
	C486.728821,326.134827 476.511444,328.282776 465.026184,328.118744 
	C460.538208,328.054626 456.018066,329.252502 451.539612,330.031067 
	C449.919922,330.312653 448.413361,331.212555 446.796631,331.549225 
	C439.209198,333.129486 433.865936,336.227081 432.427826,345.124420 
	C431.792084,349.057678 427.600464,353.042603 424.064484,355.753815 
	C416.036682,361.909180 407.255829,367.072357 399.081055,373.049164 
	C391.565521,378.543915 383.540649,380.642212 374.715363,377.636475 
	C369.107513,375.726471 365.639221,377.069092 362.399963,382.016602 
	C359.858551,385.898315 358.894562,388.996307 359.650299,393.974457 
	C361.712158,407.555939 358.498932,419.536133 345.987183,427.864410 
	C340.663208,431.408295 335.928528,436.116699 331.702637,440.971832 
	C323.424683,450.482452 312.871033,452.404449 301.372711,450.661407 
	C298.019379,450.153107 296.107758,450.967224 293.673523,452.961914 
	C292.946228,449.925690 292.555939,446.823212 292.634247,443.331940 
	C301.311859,436.982391 300.718414,431.927948 291.233032,427.017883 
	C290.858002,422.297821 290.482971,417.577728 290.497498,412.328491 
	C299.824585,403.467194 308.647430,395.006836 317.750824,386.860016 
	C321.947632,383.104126 321.342072,378.999420 320.142944,373.328400 
	C316.379303,375.959991 313.147308,377.890778 310.297455,380.277771 
	C303.338440,386.106689 296.556244,392.146698 289.702850,398.101715 
	C289.476013,395.671021 289.249176,393.240295 289.441284,390.334656 
	C290.791321,389.188629 291.800659,388.602875 292.640564,387.832428 
	C297.416870,383.451019 302.138855,379.010437 306.905762,374.618713 
	C313.234711,368.788025 320.832672,367.385803 329.157166,367.903381 
	C331.998962,368.080078 336.029358,368.159546 337.588287,366.486511 
	C342.883545,360.803680 348.498505,355.429993 348.284241,346.107422 
	C348.066833,336.649200 350.033630,327.091675 358.941864,321.034393 
	C367.466400,315.238098 376.268585,309.808502 384.453674,303.568359 
	C390.586975,298.892517 397.111206,297.027985 404.487518,298.062073 
	C411.168915,298.998810 418.466278,299.060852 423.208160,304.849762 
	C427.273132,309.812286 431.070160,306.348633 434.772827,305.069336 
	C438.842651,303.663300 437.065460,299.958710 436.504852,297.348358 
	C434.829132,289.545593 437.135834,282.970734 441.647919,276.768890 
	C442.731293,275.279755 443.149109,273.306366 443.872986,271.555664 
	C448.001862,269.706177 452.130737,267.856689 456.628662,266.357361 
	C456.435547,267.863251 456.055237,269.161987 455.279053,270.149567 
	C452.214905,274.048401 448.909210,277.760498 445.911652,281.707794 
	C441.368042,287.691071 440.870056,293.318542 444.144684,298.524170 
	C450.184509,296.409271 450.154053,296.397766 452.493256,290.200470 
	C452.893402,289.140381 453.582245,288.147827 454.301514,287.256226 
	C460.218048,279.922211 466.247437,272.677948 472.082062,265.279877 
	C474.578125,262.114990 476.692993,258.649475 478.981079,255.320602 
	C481.435150,253.999847 483.889221,252.679092 486.676178,251.697632 
	C485.098480,257.489929 483.289551,262.981323 481.249664,268.385529 
	C479.067474,274.166565 480.330048,276.519684 487.407196,279.182587 
	C491.719116,280.805023 494.526855,279.210815 496.406830,274.291870 
	C499.885345,265.190247 503.453430,256.122833 506.984192,247.041183 
	C508.552002,247.757187 510.119843,248.473190 511.886871,249.442078 
M349.501678,388.987244 
	C355.819366,380.673401 362.166260,372.381531 368.440796,364.035248 
	C371.053833,360.559387 370.032104,356.810181 365.724518,353.440796 
	C361.743683,350.326965 358.557037,350.323944 355.787872,353.881409 
	C345.609253,366.957855 335.465912,380.063995 325.508026,393.308380 
	C323.072815,396.547333 323.070923,400.114746 326.599762,403.050751 
	C331.170380,406.853546 334.562805,407.246979 337.877930,403.507904 
	C341.827454,399.053253 345.313629,394.187805 349.501678,388.987244 
M442.007751,309.493011 
	C429.997314,313.376587 417.960571,317.181549 405.988770,321.180664 
	C400.880981,322.886902 399.507751,325.865601 401.060913,330.717712 
	C403.048950,336.928345 405.073883,338.334930 410.819489,336.511627 
	C426.651825,331.487396 442.455353,326.361023 458.143372,320.909729 
	C459.851776,320.316101 461.680542,317.410461 461.824188,315.457428 
	C462.305420,308.913849 456.629303,304.851807 450.342651,306.766296 
	C447.799438,307.540771 445.279755,308.392639 442.007751,309.493011 
M383.330292,311.825745 
	C377.993866,315.493835 372.900024,319.598083 367.266388,322.731842 
	C357.891693,327.946686 354.540466,336.006622 354.588348,346.163147 
	C356.397034,345.769745 358.160858,345.031464 359.901794,345.081940 
	C363.426605,345.184113 364.671265,343.904327 365.260468,340.274139 
	C365.679535,337.692444 367.808472,334.881683 369.969940,333.189423 
	C375.318878,329.001709 381.168732,325.460144 386.735138,321.542206 
	C392.841492,317.244232 398.636261,312.902161 407.006195,313.708893 
	C410.558929,314.051300 414.378571,311.624146 418.076935,310.455719 
	C418.135040,309.884338 418.193176,309.312958 418.251282,308.741577 
	C416.524567,307.787079 414.895020,306.542542 413.055054,305.925873 
	C402.358124,302.340973 392.477081,303.440857 383.330292,311.825745 
M467.473328,320.389557 
	C467.681580,320.813995 467.807434,321.534668 468.110352,321.618896 
	C473.578644,323.139954 483.412598,319.542145 487.013763,315.039124 
	C492.399719,308.304321 497.659576,301.430878 503.514984,295.119141 
	C510.532166,287.555084 514.048523,279.277161 511.263733,268.355438 
	C507.776581,271.163666 503.061829,272.082367 502.715607,277.799774 
	C502.596558,279.765289 501.159119,281.847534 499.856842,283.510712 
	C494.336121,290.561432 488.769989,297.586395 482.940186,304.380310 
	C480.763916,306.916473 478.040833,310.240234 475.184113,310.672211 
	C469.372925,311.550873 467.216156,314.134888 467.473328,320.389557 
M320.495331,429.004425 
	C317.538788,431.853088 315.048340,435.259644 310.143921,435.129547 
	C308.488953,435.085693 305.605804,436.291656 305.341675,437.411652 
	C304.585724,440.617249 308.238647,444.960144 310.972931,444.992554 
	C316.499359,445.058075 320.772247,442.320343 324.691162,438.806793 
	C330.983246,433.165619 337.004608,427.179565 343.635956,421.970154 
	C352.721375,414.832947 354.640106,405.578125 353.750153,394.288116 
	C347.692108,401.562836 342.502716,408.446564 336.610657,414.664520 
	C331.846802,419.691956 326.236603,423.917419 320.495331,429.004425 
M387.935059,328.431732 
	C383.424530,331.543579 378.909302,334.648590 374.405060,337.769531 
	C371.105713,340.055634 369.109833,346.197388 370.722229,349.041748 
	C373.912323,354.669128 380.481995,357.896118 384.812775,355.310486 
	C390.722321,351.782135 396.250824,347.615570 400.928864,344.416016 
	C397.860687,337.684265 395.188141,331.820526 392.373718,325.645538 
	C391.519409,326.164032 390.015411,327.076813 387.935059,328.431732 
M310.090790,428.956177 
	C316.404572,423.728760 322.718384,418.501343 328.405823,413.792511 
	C323.584503,407.995544 319.414948,402.982178 315.059448,397.745239 
	C310.403412,402.001038 305.137299,406.766083 299.945068,411.610321 
	C299.128052,412.372620 298.474579,413.421295 298.035919,414.460175 
	C294.992676,421.667786 299.704559,427.708984 310.090790,428.956177 
M474.324188,275.592865 
	C473.673706,275.401672 472.614838,274.859985 472.433380,275.071350 
	C469.208893,278.828186 466.085052,282.671692 462.951385,286.506195 
	C456.884491,293.929932 457.162811,297.431244 464.311615,303.809845 
	C466.281067,305.567108 473.553192,305.911774 475.213745,303.944397 
	C479.861176,298.438141 484.261322,292.723083 489.019165,286.764618 
	C483.662750,283.584076 476.528381,283.265991 474.324188,275.592865 
M402.499786,363.001709 
	C410.011658,357.227081 418.921661,353.220612 425.286407,345.902557 
	C419.674957,339.862823 418.385101,339.778503 412.806366,343.759247 
	C404.966278,349.353638 397.165222,355.032257 389.014801,360.144440 
	C386.516388,361.711487 382.896912,361.424011 379.850403,362.215332 
	C378.514008,362.562439 376.452515,363.263794 376.219757,364.183746 
	C375.051392,368.801331 380.501923,374.185089 384.896912,372.373474 
	C390.798615,369.940765 396.271332,366.467285 402.499786,363.001709 
z"/>
<path fill="#E3E5EE" opacity="1.000000" stroke="none" 
	d="
M466.124603,750.391968 
	C466.523987,749.761414 467.117737,749.089050 467.629150,749.146790 
	C478.319519,750.353149 480.392303,740.737732 485.125122,734.793640 
	C486.358032,733.245117 484.992676,729.718445 485.024872,727.102783 
	C485.077972,722.789856 484.966431,718.436462 485.513458,714.175781 
	C486.765533,704.424194 495.123993,699.798828 501.177063,693.625122 
	C505.806000,688.903870 511.259399,685.000061 516.011536,680.387939 
	C521.176025,675.375610 527.015747,671.682495 534.251831,673.125793 
	C546.189697,675.507019 551.732361,668.110962 556.782227,659.631470 
	C557.646790,658.179688 557.793640,656.208618 557.952087,654.448608 
	C558.219666,651.477051 558.136841,648.475098 558.367737,645.498840 
	C559.199951,634.773743 565.109619,627.632568 574.082886,622.191040 
	C581.882568,617.461182 589.144165,611.853516 596.774170,606.832153 
	C607.139465,600.010620 624.227783,601.307373 633.266235,609.896606 
	C637.644104,614.056885 641.473206,610.815552 645.202942,609.580078 
	C646.246948,609.234314 646.594299,605.072327 646.320618,602.772888 
	C645.379089,594.863525 646.190979,587.800110 651.862915,581.421814 
	C659.785583,572.512512 666.793945,562.782837 674.829895,553.985535 
	C677.505005,551.057068 682.138489,549.917542 686.249146,547.962524 
	C685.781860,550.490601 684.942078,553.016235 683.535461,555.805786 
	C681.719421,556.803467 680.147949,557.267029 679.271240,558.312927 
	C670.883118,568.320007 662.327515,578.209595 654.445740,588.607178 
	C651.207642,592.878845 650.735168,598.352051 654.071350,604.923584 
	C657.080200,602.267761 660.875061,600.525085 661.727112,597.846436 
	C663.783020,591.382812 667.715820,586.851074 672.879395,582.988403 
	C667.810791,593.254700 662.742065,603.520935 657.135315,613.695435 
	C656.131226,613.460449 655.590637,613.085144 655.210083,613.207581 
	C641.432800,617.640137 627.625366,621.990051 613.963196,626.755737 
	C612.269714,627.346497 610.383545,630.114624 610.254639,631.988586 
	C609.695862,640.109619 614.523071,643.484619 622.383179,641.047241 
	C629.998047,638.685913 637.642578,636.420471 645.274109,634.112854 
	C642.148010,638.987305 639.021973,643.861816 635.246582,648.866455 
	C630.023987,644.966370 626.039917,646.127930 621.469604,649.578186 
	C614.056030,655.175110 606.205261,660.206360 598.398804,665.259705 
	C596.565063,666.446777 594.209656,666.939087 592.022644,667.434937 
	C590.201050,667.847961 588.274292,667.797485 586.394165,667.952393 
	C586.858032,670.142883 586.958008,672.499878 587.866821,674.486877 
	C589.427734,677.899597 592.700134,678.997925 595.828125,677.420349 
	C601.719971,674.448792 607.295044,670.848694 612.997192,667.501953 
	C618.364990,664.351379 623.726685,661.190613 629.091125,658.034302 
	C625.321106,663.349670 621.551025,668.664978 617.284058,673.889771 
	C615.078979,674.491150 613.296387,675.042847 611.677185,675.902283 
	C607.323425,678.213196 603.251953,681.982483 598.674805,682.715942 
	C592.711365,683.671326 586.372314,682.157593 580.186646,681.938049 
	C578.608459,681.882019 576.529175,682.216370 575.500916,683.215759 
	C573.274963,685.379211 571.395813,687.974609 569.750732,690.626587 
	C569.005615,691.827820 568.934021,693.585571 568.939880,695.089355 
	C568.962830,700.977722 569.841553,706.962463 569.046326,712.724182 
	C568.346497,717.794250 565.837463,722.614502 564.127441,727.545044 
	C552.223389,738.994995 539.173462,748.921082 524.173218,756.856567 
	C518.509705,756.083679 513.494202,755.477051 508.461182,755.112122 
	C507.488708,755.041504 506.086609,755.638062 505.499054,756.401306 
	C502.508972,760.285645 499.721558,764.325928 496.863220,768.311646 
	C495.012390,767.473694 493.161530,766.635803 491.249451,765.214844 
	C496.507874,757.841431 501.924438,751.123108 507.067932,744.201904 
	C508.135712,742.765076 509.219452,739.786316 508.522858,738.878113 
	C506.268433,735.938904 503.536133,732.791138 500.277039,731.445496 
	C498.701691,730.794983 494.903503,733.468994 493.211121,735.537231 
	C487.544189,742.462830 482.372833,749.793884 477.011719,756.969604 
	C473.434692,754.876465 469.857666,752.783264 466.124603,750.391968 
M542.500366,688.998169 
	C540.158020,692.011292 537.750244,694.976318 535.490234,698.049927 
	C532.770325,701.749084 533.437134,705.622864 537.138794,708.462585 
	C541.866211,712.089172 545.273987,711.996277 548.359009,707.995972 
	C558.189026,695.249451 567.982056,682.474365 577.769043,669.694763 
	C581.046570,665.415039 580.239746,661.718445 575.265259,657.859985 
	C571.646301,655.052734 568.423035,655.313904 565.374451,659.214172 
	C557.812683,668.888367 550.436523,678.707642 542.500366,688.998169 
M575.028381,644.748779 
	C576.636902,642.524719 577.828552,639.740601 579.928772,638.177246 
	C587.515137,632.530212 595.266052,627.070190 603.261169,622.025024 
	C606.017334,620.285767 609.630676,619.797546 612.921692,619.037598 
	C618.120789,617.836975 623.378296,616.889282 629.213684,615.713135 
	C623.038208,608.080017 607.041016,607.017578 598.995911,612.643127 
	C590.968262,618.256470 583.086060,624.098328 574.846436,629.382019 
	C566.983704,634.424072 564.585144,641.689453 564.483093,650.924805 
	C568.237610,648.896667 574.089355,652.433716 575.028381,644.748779 
M561.875000,716.988159 
	C562.604248,711.543945 563.333496,706.099731 564.062744,700.655457 
	C563.477722,700.526672 562.892639,700.397827 562.307556,700.268982 
	C558.120361,705.759949 554.401428,711.704163 549.632202,716.631836 
	C543.074768,723.407227 535.757263,729.452637 528.685486,735.720703 
	C526.963257,737.247192 525.086548,738.808167 522.997925,739.658081 
	C520.561340,740.649658 516.362854,740.118713 515.570740,741.631714 
	C514.587158,743.510315 516.310120,746.806030 516.937317,749.844482 
	C522.413330,750.245789 527.578796,749.725464 532.018616,745.580505 
	C536.494507,741.401733 541.433411,737.716980 545.882874,733.512390 
	C551.276978,728.415161 556.370483,722.999878 561.875000,716.988159 
M508.453308,695.990356 
	C505.246704,698.879333 502.206451,701.983887 498.799530,704.613342 
	C491.229767,710.455566 490.439087,718.379211 491.227295,727.011536 
	C496.479309,725.434998 502.508057,725.022339 501.632629,717.106384 
	C501.509460,715.992676 503.004669,714.477844 504.068390,713.491028 
	C511.007050,707.054443 517.889221,700.543823 525.075989,694.391785 
	C530.991638,689.327820 532.320068,686.110474 529.824097,679.040833 
	C521.062317,682.327332 515.622253,689.716980 508.453308,695.990356 
M605.955200,640.322021 
	C605.076721,636.868652 604.198181,633.415283 603.222412,629.579468 
	C596.589783,634.109436 589.969849,638.477234 583.530823,643.097229 
	C580.588562,645.208435 579.301270,651.827393 580.937866,654.345154 
	C584.358154,659.607239 590.081970,662.539001 594.222473,660.219299 
	C600.352966,656.784790 606.051514,652.579407 611.787964,648.798462 
	C609.618225,645.808044 607.893311,643.430542 605.955200,640.322021 
M507.009521,724.269165 
	C508.915680,731.048035 517.708496,736.495789 522.070374,733.062378 
	C527.984253,728.407104 533.205261,722.871521 539.131470,717.332275 
	C532.772339,713.336792 527.062012,709.539062 526.868286,701.075867 
	C521.971863,705.438660 517.669922,709.037842 513.651123,712.929321 
	C510.624939,715.859558 506.652710,718.347351 507.009521,724.269165 
z"/>
<path fill="#F3F5FB" opacity="1.000000" stroke="none" 
	d="
M443.505127,271.647095 
	C443.149109,273.306366 442.731293,275.279755 441.647919,276.768890 
	C437.135834,282.970734 434.829132,289.545593 436.504852,297.348358 
	C437.065460,299.958710 438.842651,303.663300 434.772827,305.069336 
	C431.070160,306.348633 427.273132,309.812286 423.208160,304.849762 
	C418.466278,299.060852 411.168915,298.998810 404.487518,298.062073 
	C397.111206,297.027985 390.586975,298.892517 384.453674,303.568359 
	C376.268585,309.808502 367.466400,315.238098 358.941864,321.034393 
	C350.033630,327.091675 348.066833,336.649200 348.284241,346.107422 
	C348.498505,355.429993 342.883545,360.803680 337.588287,366.486511 
	C336.029358,368.159546 331.998962,368.080078 329.157166,367.903381 
	C320.832672,367.385803 313.234711,368.788025 306.905762,374.618713 
	C302.138855,379.010437 297.416870,383.451019 292.640564,387.832428 
	C291.800659,388.602875 290.791321,389.188629 289.533813,389.921570 
	C288.380829,365.205902 287.614502,340.426056 286.665710,315.653198 
	C286.515411,311.728363 288.956268,311.479675 291.636841,311.019653 
	C311.955475,307.532379 332.326355,304.318939 352.576935,300.472626 
	C383.889221,294.525238 414.018982,284.684784 443.505127,271.647095 
z"/>
<path fill="#F3F5FB" opacity="1.000000" stroke="none" 
	d="
M564.440918,727.381348 
	C565.837463,722.614502 568.346497,717.794250 569.046326,712.724182 
	C569.841553,706.962463 568.962830,700.977722 568.939880,695.089355 
	C568.934021,693.585571 569.005615,691.827820 569.750732,690.626587 
	C571.395813,687.974609 573.274963,685.379211 575.500916,683.215759 
	C576.529175,682.216370 578.608459,681.882019 580.186646,681.938049 
	C586.372314,682.157593 592.711365,683.671326 598.674805,682.715942 
	C603.251953,681.982483 607.323425,678.213196 611.677185,675.902283 
	C613.296387,675.042847 615.078979,674.491150 616.986694,674.059326 
	C606.050598,686.349731 595.112366,698.571655 583.697510,710.330994 
	C577.820984,716.384888 571.095947,721.615173 564.440918,727.381348 
z"/>
<path fill="#F3F5FB" opacity="1.000000" stroke="none" 
	d="
M645.545227,633.921509 
	C637.642578,636.420471 629.998047,638.685913 622.383179,641.047241 
	C614.523071,643.484619 609.695862,640.109619 610.254639,631.988586 
	C610.383545,630.114624 612.269714,627.346497 613.963196,626.755737 
	C627.625366,621.990051 641.432800,617.640137 655.210083,613.207581 
	C655.590637,613.085144 656.131226,613.460449 656.836060,613.870728 
	C653.322083,620.668518 649.569214,627.199341 645.545227,633.921509 
z"/>
<path fill="#F3F5FB" opacity="1.000000" stroke="none" 
	d="
M477.187561,757.259888 
	C482.372833,749.793884 487.544189,742.462830 493.211121,735.537231 
	C494.903503,733.468994 498.701691,730.794983 500.277039,731.445496 
	C503.536133,732.791138 506.268433,735.938904 508.522858,738.878113 
	C509.219452,739.786316 508.135712,742.765076 507.067932,744.201904 
	C501.924438,751.123108 496.507874,757.841431 491.041351,764.953613 
	C486.384125,762.700439 481.873749,760.125305 477.187561,757.259888 
z"/>
<path fill="#F3F5FB" opacity="1.000000" stroke="none" 
	d="
M506.748169,246.742645 
	C503.453430,256.122833 499.885345,265.190247 496.406830,274.291870 
	C494.526855,279.210815 491.719116,280.805023 487.407196,279.182587 
	C480.330048,276.519684 479.067474,274.166565 481.249664,268.385529 
	C483.289551,262.981323 485.098480,257.489929 487.016724,251.666229 
	C490.502411,249.376038 493.797638,246.823074 497.519653,245.748688 
	C500.224823,244.967804 503.494263,246.141754 506.748169,246.742645 
z"/>
<path fill="#F3F5FC" opacity="1.000000" stroke="none" 
	d="
M629.378784,657.865356 
	C623.726685,661.190613 618.364990,664.351379 612.997192,667.501953 
	C607.295044,670.848694 601.719971,674.448792 595.828125,677.420349 
	C592.700134,678.997925 589.427734,677.899597 587.866821,674.486877 
	C586.958008,672.499878 586.858032,670.142883 586.394165,667.952393 
	C588.274292,667.797485 590.201050,667.847961 592.022644,667.434937 
	C594.209656,666.939087 596.565063,666.446777 598.398804,665.259705 
	C606.205261,660.206360 614.056030,655.175110 621.469604,649.578186 
	C626.039917,646.127930 630.023987,644.966370 634.980347,649.053101 
	C633.464417,651.971802 631.565430,654.834106 629.378784,657.865356 
z"/>
<path fill="#F3F5FB" opacity="1.000000" stroke="none" 
	d="
M673.112305,582.719177 
	C667.715820,586.851074 663.783020,591.382812 661.727112,597.846436 
	C660.875061,600.525085 657.080200,602.267761 654.071350,604.923584 
	C650.735168,598.352051 651.207642,592.878845 654.445740,588.607178 
	C662.327515,578.209595 670.883118,568.320007 679.271240,558.312927 
	C680.147949,557.267029 681.719421,556.803467 683.367615,556.072510 
	C680.292847,564.866882 676.819031,573.658386 673.112305,582.719177 
z"/>
<path fill="#F3F5FB" opacity="1.000000" stroke="none" 
	d="
M478.641724,255.363922 
	C476.692993,258.649475 474.578125,262.114990 472.082062,265.279877 
	C466.247437,272.677948 460.218048,279.922211 454.301514,287.256226 
	C453.582245,288.147827 452.893402,289.140381 452.493256,290.200470 
	C450.154053,296.397766 450.184509,296.409271 444.144684,298.524170 
	C440.870056,293.318542 441.368042,287.691071 445.911652,281.707794 
	C448.909210,277.760498 452.214905,274.048401 455.279053,270.149567 
	C456.055237,269.161987 456.435547,267.863251 456.994507,266.341248 
	C464.095001,262.452423 471.198700,258.929840 478.641724,255.363922 
z"/>
<path fill="#F3F5FC" opacity="1.000000" stroke="none" 
	d="
M289.573944,398.546356 
	C296.556244,392.146698 303.338440,386.106689 310.297455,380.277771 
	C313.147308,377.890778 316.379303,375.959991 320.142944,373.328400 
	C321.342072,378.999420 321.947632,383.104126 317.750824,386.860016 
	C308.647430,395.006836 299.824585,403.467194 290.580322,411.888885 
	C289.997406,407.649292 289.721222,403.320129 289.573944,398.546356 
z"/>
<path fill="#EEF0F7" opacity="1.000000" stroke="none" 
	d="
M497.138519,768.607544 
	C499.721558,764.325928 502.508972,760.285645 505.499054,756.401306 
	C506.086609,755.638062 507.488708,755.041504 508.461182,755.112122 
	C513.494202,755.477051 518.509705,756.083679 523.823120,756.917969 
	C517.167358,761.041748 510.289581,764.992004 503.218658,768.559387 
	C501.630219,769.360840 499.366608,768.824158 497.138519,768.607544 
z"/>
<path fill="#F3F5FC" opacity="1.000000" stroke="none" 
	d="
M291.167053,427.451111 
	C300.718414,431.927948 301.311859,436.982391 292.716858,442.981140 
	C291.920959,437.974182 291.511017,432.929291 291.167053,427.451111 
z"/>
<path fill="#080D33" opacity="1.000000" stroke="none" 
	d="
M424.978088,572.020325 
	C381.150360,519.776550 399.378479,439.072266 465.701660,413.801147 
	C525.120178,391.160889 589.125305,428.467682 599.762207,491.184570 
	C609.082642,546.139099 570.481934,598.771118 515.082458,606.041443 
	C479.305756,610.736633 449.213013,599.381592 424.978088,572.020325 
M533.288025,432.094910 
	C523.376404,427.876892 513.016663,425.617920 502.264648,425.539337 
	C450.940918,425.164368 414.592285,469.694855 419.783813,514.750244 
	C423.449371,546.562256 439.729218,569.711060 468.848907,582.292664 
	C498.626892,595.158691 527.471069,590.878357 552.747620,570.548035 
	C600.293274,532.306274 589.889832,457.429016 533.288025,432.094910 
z"/>
<path fill="#F3F5FC" opacity="1.000000" stroke="none" 
	d="
M349.251099,389.243774 
	C345.313629,394.187805 341.827454,399.053253 337.877930,403.507904 
	C334.562805,407.246979 331.170380,406.853546 326.599762,403.050751 
	C323.070923,400.114746 323.072815,396.547333 325.508026,393.308380 
	C335.465912,380.063995 345.609253,366.957855 355.787872,353.881409 
	C358.557037,350.323944 361.743683,350.326965 365.724518,353.440796 
	C370.032104,356.810181 371.053833,360.559387 368.440796,364.035248 
	C362.166260,372.381531 355.819366,380.673401 349.251099,389.243774 
z"/>
<path fill="#F3F5FC" opacity="1.000000" stroke="none" 
	d="
M442.378540,309.351135 
	C445.279755,308.392639 447.799438,307.540771 450.342651,306.766296 
	C456.629303,304.851807 462.305420,308.913849 461.824188,315.457428 
	C461.680542,317.410461 459.851776,320.316101 458.143372,320.909729 
	C442.455353,326.361023 426.651825,331.487396 410.819489,336.511627 
	C405.073883,338.334930 403.048950,336.928345 401.060913,330.717712 
	C399.507751,325.865601 400.880981,322.886902 405.988770,321.180664 
	C417.960571,317.181549 429.997314,313.376587 442.378540,309.351135 
z"/>
<path fill="#F3F5FC" opacity="1.000000" stroke="none" 
	d="
M383.633789,311.630310 
	C392.477081,303.440857 402.358124,302.340973 413.055054,305.925873 
	C414.895020,306.542542 416.524567,307.787079 418.251282,308.741577 
	C418.193176,309.312958 418.135040,309.884338 418.076935,310.455719 
	C414.378571,311.624146 410.558929,314.051300 407.006195,313.708893 
	C398.636261,312.902161 392.841492,317.244232 386.735138,321.542206 
	C381.168732,325.460144 375.318878,329.001709 369.969940,333.189423 
	C367.808472,334.881683 365.679535,337.692444 365.260468,340.274139 
	C364.671265,343.904327 363.426605,345.184113 359.901794,345.081940 
	C358.160858,345.031464 356.397034,345.769745 354.588348,346.163147 
	C354.540466,336.006622 357.891693,327.946686 367.266388,322.731842 
	C372.900024,319.598083 377.993866,315.493835 383.633789,311.630310 
z"/>
<path fill="#F3F5FC" opacity="1.000000" stroke="none" 
	d="
M467.568604,320.002502 
	C467.216156,314.134888 469.372925,311.550873 475.184113,310.672211 
	C478.040833,310.240234 480.763916,306.916473 482.940186,304.380310 
	C488.769989,297.586395 494.336121,290.561432 499.856842,283.510712 
	C501.159119,281.847534 502.596558,279.765289 502.715607,277.799774 
	C503.061829,272.082367 507.776581,271.163666 511.263733,268.355438 
	C514.048523,279.277161 510.532166,287.555084 503.514984,295.119141 
	C497.659576,301.430878 492.399719,308.304321 487.013763,315.039124 
	C483.412598,319.542145 473.578644,323.139954 468.110352,321.618896 
	C467.807434,321.534668 467.681580,320.813995 467.568604,320.002502 
z"/>
<path fill="#F3F5FC" opacity="1.000000" stroke="none" 
	d="
M320.748596,428.751526 
	C326.236603,423.917419 331.846802,419.691956 336.610657,414.664520 
	C342.502716,408.446564 347.692108,401.562836 353.750153,394.288116 
	C354.640106,405.578125 352.721375,414.832947 343.635956,421.970154 
	C337.004608,427.179565 330.983246,433.165619 324.691162,438.806793 
	C320.772247,442.320343 316.499359,445.058075 310.972931,444.992554 
	C308.238647,444.960144 304.585724,440.617249 305.341675,437.411652 
	C305.605804,436.291656 308.488953,435.085693 310.143921,435.129547 
	C315.048340,435.259644 317.538788,431.853088 320.748596,428.751526 
z"/>
<path fill="#F3F5FC" opacity="1.000000" stroke="none" 
	d="
M388.223267,328.210663 
	C390.015411,327.076813 391.519409,326.164032 392.373718,325.645538 
	C395.188141,331.820526 397.860687,337.684265 400.928864,344.416016 
	C396.250824,347.615570 390.722321,351.782135 384.812775,355.310486 
	C380.481995,357.896118 373.912323,354.669128 370.722229,349.041748 
	C369.109833,346.197388 371.105713,340.055634 374.405060,337.769531 
	C378.909302,334.648590 383.424530,331.543579 388.223267,328.210663 
z"/>
<path fill="#F3F5FC" opacity="1.000000" stroke="none" 
	d="
M309.698792,428.970886 
	C299.704559,427.708984 294.992676,421.667786 298.035919,414.460175 
	C298.474579,413.421295 299.128052,412.372620 299.945068,411.610321 
	C305.137299,406.766083 310.403412,402.001038 315.059448,397.745239 
	C319.414948,402.982178 323.584503,407.995544 328.405823,413.792511 
	C322.718384,418.501343 316.404572,423.728760 309.698792,428.970886 
z"/>
<path fill="#F3F5FC" opacity="1.000000" stroke="none" 
	d="
M474.464600,275.888763 
	C476.528381,283.265991 483.662750,283.584076 489.019165,286.764618 
	C484.261322,292.723083 479.861176,298.438141 475.213745,303.944397 
	C473.553192,305.911774 466.281067,305.567108 464.311615,303.809845 
	C457.162811,297.431244 456.884491,293.929932 462.951385,286.506195 
	C466.085052,282.671692 469.208893,278.828186 472.433380,275.071350 
	C472.614838,274.859985 473.673706,275.401672 474.464600,275.888763 
z"/>
<path fill="#F3F5FC" opacity="1.000000" stroke="none" 
	d="
M402.213989,363.221161 
	C396.271332,366.467285 390.798615,369.940765 384.896912,372.373474 
	C380.501923,374.185089 375.051392,368.801331 376.219757,364.183746 
	C376.452515,363.263794 378.514008,362.562439 379.850403,362.215332 
	C382.896912,361.424011 386.516388,361.711487 389.014801,360.144440 
	C397.165222,355.032257 404.966278,349.353638 412.806366,343.759247 
	C418.385101,339.778503 419.674957,339.862823 425.286407,345.902557 
	C418.921661,353.220612 410.011658,357.227081 402.213989,363.221161 
z"/>
<path fill="#F3F5FC" opacity="1.000000" stroke="none" 
	d="
M542.743103,688.733398 
	C550.436523,678.707642 557.812683,668.888367 565.374451,659.214172 
	C568.423035,655.313904 571.646301,655.052734 575.265259,657.859985 
	C580.239746,661.718445 581.046570,665.415039 577.769043,669.694763 
	C567.982056,682.474365 558.189026,695.249451 548.359009,707.995972 
	C545.273987,711.996277 541.866211,712.089172 537.138794,708.462585 
	C533.437134,705.622864 532.770325,701.749084 535.490234,698.049927 
	C537.750244,694.976318 540.158020,692.011292 542.743103,688.733398 
z"/>
<path fill="#F3F5FC" opacity="1.000000" stroke="none" 
	d="
M574.976196,645.140869 
	C574.089355,652.433716 568.237610,648.896667 564.483093,650.924805 
	C564.585144,641.689453 566.983704,634.424072 574.846436,629.382019 
	C583.086060,624.098328 590.968262,618.256470 598.995911,612.643127 
	C607.041016,607.017578 623.038208,608.080017 629.213684,615.713135 
	C623.378296,616.889282 618.120789,617.836975 612.921692,619.037598 
	C609.630676,619.797546 606.017334,620.285767 603.261169,622.025024 
	C595.266052,627.070190 587.515137,632.530212 579.928772,638.177246 
	C577.828552,639.740601 576.636902,642.524719 574.976196,645.140869 
z"/>
<path fill="#F3F5FC" opacity="1.000000" stroke="none" 
	d="
M561.734558,717.355225 
	C556.370483,722.999878 551.276978,728.415161 545.882874,733.512390 
	C541.433411,737.716980 536.494507,741.401733 532.018616,745.580505 
	C527.578796,749.725464 522.413330,750.245789 516.937317,749.844482 
	C516.310120,746.806030 514.587158,743.510315 515.570740,741.631714 
	C516.362854,740.118713 520.561340,740.649658 522.997925,739.658081 
	C525.086548,738.808167 526.963257,737.247192 528.685486,735.720703 
	C535.757263,729.452637 543.074768,723.407227 549.632202,716.631836 
	C554.401428,711.704163 558.120361,705.759949 562.307556,700.268982 
	C562.892639,700.397827 563.477722,700.526672 564.062744,700.655457 
	C563.333496,706.099731 562.604248,711.543945 561.734558,717.355225 
z"/>
<path fill="#F3F5FC" opacity="1.000000" stroke="none" 
	d="
M508.712158,695.749268 
	C515.622253,689.716980 521.062317,682.327332 529.824097,679.040833 
	C532.320068,686.110474 530.991638,689.327820 525.075989,694.391785 
	C517.889221,700.543823 511.007050,707.054443 504.068390,713.491028 
	C503.004669,714.477844 501.509460,715.992676 501.632629,717.106384 
	C502.508057,725.022339 496.479309,725.434998 491.227295,727.011536 
	C490.439087,718.379211 491.229767,710.455566 498.799530,704.613342 
	C502.206451,701.983887 505.246704,698.879333 508.712158,695.749268 
z"/>
<path fill="#F3F5FC" opacity="1.000000" stroke="none" 
	d="
M606.061768,640.687561 
	C607.893311,643.430542 609.618225,645.808044 611.787964,648.798462 
	C606.051514,652.579407 600.352966,656.784790 594.222473,660.219299 
	C590.081970,662.539001 584.358154,659.607239 580.937866,654.345154 
	C579.301270,651.827393 580.588562,645.208435 583.530823,643.097229 
	C589.969849,638.477234 596.589783,634.109436 603.222412,629.579468 
	C604.198181,633.415283 605.076721,636.868652 606.061768,640.687561 
z"/>
<path fill="#F3F5FC" opacity="1.000000" stroke="none" 
	d="
M507.007080,723.869141 
	C506.652710,718.347351 510.624939,715.859558 513.651123,712.929321 
	C517.669922,709.037842 521.971863,705.438660 526.868286,701.075867 
	C527.062012,709.539062 532.772339,713.336792 539.131470,717.332275 
	C533.205261,722.871521 527.984253,728.407104 522.070374,733.062378 
	C517.708496,736.495789 508.915680,731.048035 507.007080,723.869141 
z"/>
<path fill="#F3F5FB" opacity="1.000000" stroke="none" 
	d="
M533.640625,432.239990 
	C589.889832,457.429016 600.293274,532.306274 552.747620,570.548035 
	C527.471069,590.878357 498.626892,595.158691 468.848907,582.292664 
	C439.729218,569.711060 423.449371,546.562256 419.783813,514.750244 
	C414.592285,469.694855 450.940918,425.164368 502.264648,425.539337 
	C513.016663,425.617920 523.376404,427.876892 533.640625,432.239990 
M474.198730,560.692444 
	C475.972809,561.075073 477.744873,561.778687 479.521240,561.789734 
	C494.010559,561.880005 508.501770,561.947021 522.990112,561.797607 
	C530.578308,561.719360 534.274231,556.453247 532.274902,548.960632 
	C529.064636,536.930298 525.848328,524.900513 522.459229,512.920044 
	C521.691162,510.204926 522.112732,508.481049 524.122375,506.351196 
	C536.438904,493.297668 535.923401,473.906311 523.158386,461.546600 
	C510.947296,449.723145 491.405792,449.804901 478.958344,461.731506 
	C466.649353,473.525452 466.120605,493.544708 478.153656,506.223755 
	C480.551575,508.750427 480.611267,510.749023 479.786774,513.639709 
	C476.552124,524.980103 473.470276,536.364075 470.322784,547.729370 
	C468.994659,552.525085 468.884674,556.992249 474.198730,560.692444 
z"/>
<path fill="#080D33" opacity="1.000000" stroke="none" 
	d="
M473.885620,560.454712 
	C468.884674,556.992249 468.994659,552.525085 470.322784,547.729370 
	C473.470276,536.364075 476.552124,524.980103 479.786774,513.639709 
	C480.611267,510.749023 480.551575,508.750427 478.153656,506.223755 
	C466.120605,493.544708 466.649353,473.525452 478.958344,461.731506 
	C491.405792,449.804901 510.947296,449.723145 523.158386,461.546600 
	C535.923401,473.906311 536.438904,493.297668 524.122375,506.351196 
	C522.112732,508.481049 521.691162,510.204926 522.459229,512.920044 
	C525.848328,524.900513 529.064636,536.930298 532.274902,548.960632 
	C534.274231,556.453247 530.578308,561.719360 522.990112,561.797607 
	C508.501770,561.947021 494.010559,561.880005 479.521240,561.789734 
	C477.744873,561.778687 475.972809,561.075073 473.885620,560.454712 
M514.670959,486.894653 
	C514.530884,484.925262 514.668701,482.886719 514.198975,480.999390 
	C512.767334,475.247223 507.749603,471.229187 502.033447,470.965820 
	C495.812500,470.679169 490.494415,474.143616 488.429077,479.828461 
	C486.379700,485.469391 488.250122,491.764343 493.061859,495.420166 
	C501.443695,501.788391 501.628296,502.307587 498.906464,512.411499 
	C498.388580,514.333801 497.762329,516.226929 497.246124,518.149658 
	C495.027863,526.411926 492.832031,534.680237 490.534241,543.298218 
	C497.964447,543.298218 504.698944,543.298218 511.909119,543.298218 
	C508.747345,531.650757 505.651947,520.330261 502.606598,508.996307 
	C500.977936,502.934906 502.366913,500.441101 507.134644,496.637482 
	C510.079865,494.287903 512.026733,490.686890 514.670959,486.894653 
z"/>
<path fill="#EEF0F7" opacity="1.000000" stroke="none" 
	d="
M514.546387,487.271179 
	C512.026733,490.686890 510.079865,494.287903 507.134644,496.637482 
	C502.366913,500.441101 500.977936,502.934906 502.606598,508.996307 
	C505.651947,520.330261 508.747345,531.650757 511.909119,543.298218 
	C504.698944,543.298218 497.964447,543.298218 490.534241,543.298218 
	C492.832031,534.680237 495.027863,526.411926 497.246124,518.149658 
	C497.762329,516.226929 498.388580,514.333801 498.906464,512.411499 
	C501.628296,502.307587 501.443695,501.788391 493.061859,495.420166 
	C488.250122,491.764343 486.379700,485.469391 488.429077,479.828461 
	C490.494415,474.143616 495.812500,470.679169 502.033447,470.965820 
	C507.749603,471.229187 512.767334,475.247223 514.198975,480.999390 
	C514.668701,482.886719 514.530884,484.925262 514.546387,487.271179 
z"/>
</svg>